# xmcd
#
# Track frame offsets: 
#        150
#        12509
#        23972
#        45071
#        54896
#        65879
#        78480
#        89055
#        101107
#        114415
#        127933
#        141508
#        153655
#        163937
#        174542
#        186325
#
# Disc length: 2628 seconds
#
# Revision: 2
# Processed by: cddbd v1.5.2PL0 Copyright (c) Steve Scherf et al.
# Submitted via: ExactAudioCopy v1.0b3
#
DISCID=df0a4210
DTITLE=Various Artist - Golden Age of Country - Honky-Tonk Man Disc 1
DYEAR=2009
DGENRE=Country
TTITLE0=Johnny Cash - Folsom Prison Blues
TTITLE1=Don Gibson - Oh Lonesome Me
TTITLE2=Marty Robbins - El Paso
TTITLE3=Elvis Presley - Heartbreak Hotel
TTITLE4=Charlie Walker - Pick Me Up on Your Way Down
TTITLE5=Bobby Bare - Detroit City
TTITLE6=Jim Reeves - He'll Have To Go
TTITLE7=Eddy Arnold - Make the World Go Away
TTITLE8=Carl and Pearl Butler - Don't Let Me Cross Over
TTITLE9=Claude King - Wolverton Mountain
TTITLE10=Jimmy Dean - Big Bad John
TTITLE11=Tammy Wynette - Stand By Your Man
TTITLE12=Billy Walker - Charlie's Shoes
TTITLE13=The Statler Brothers - Flowers on the Wall
TTITLE14=Henson Cargill - Skip a Rope
TTITLE15=Charley Pride - Does My Ring Hurt Your Finger
EXTD=
EXTT0=
EXTT1=
EXTT2=
EXTT3=
EXTT4=
EXTT5=
EXTT6=
EXTT7=
EXTT8=
EXTT9=
EXTT10=
EXTT11=
EXTT12=
EXTT13=
EXTT14=
EXTT15=
PLAYORDER=
